<svg xmlns="http://www.w3.org/2000/svg" width="30" height="30" viewBox="0 0 30 30">
  <defs>
    <style>
      .cls-1 {
        fill: #c12a2a;
      }

      .cls-2 {
        fill: #fff;
      }
    </style>
  </defs>
  <g id="组_80" data-name="组 80" transform="translate(-443 -519)">
    <circle id="椭圆_25" data-name="椭圆 25" class="cls-1" cx="15" cy="15" r="15" transform="translate(443 519)"/>
    <g id="icon_画板_1_副本_17" data-name="icon_画板 1 副本 17" transform="translate(449 525)">
      <path id="路径_65" data-name="路径 65" class="cls-2" d="M30.875,31.1h3.107a.633.633,0,0,0,.632-.616h0a.633.633,0,0,0-.632-.616H30.875V27.329a3.787,3.787,0,0,0,3.054-3.437.6.6,0,0,0-.632-.667h0a.6.6,0,0,0-.606.513,2.961,2.961,0,0,1-3.08,2.488H20.923a3.014,3.014,0,0,1-3.08-2.513.594.594,0,0,0-.606-.513h0a.593.593,0,0,0-.606.667A4.08,4.08,0,0,0,19.686,27.3v2.539H16.632a.633.633,0,0,0-.632.616h0a.633.633,0,0,0,.632.616h3.107v1.821a5.022,5.022,0,0,0,.369,1.924,3.927,3.927,0,0,0-3.423,3.437.613.613,0,0,0,.606.692h0a.6.6,0,0,0,.606-.539,2.878,2.878,0,0,1,2.817-2.488,5.614,5.614,0,0,0,4.581,2.411,5.464,5.464,0,0,0,4.581-2.411,2.953,2.953,0,0,1,2.817,2.488.594.594,0,0,0,.606.513h0a.613.613,0,0,0,.606-.692,3.9,3.9,0,0,0-3.423-3.411,5.119,5.119,0,0,0,.369-1.924V31.1Zm-5.582,6.053a4.327,4.327,0,0,1-4.344-4.232V27.483h3.739v6.643a.633.633,0,0,0,.632.616h0a.633.633,0,0,0,.632-.616V27.483h3.712v5.437a4.368,4.368,0,0,1-4.371,4.232Zm0,0" transform="translate(-16 -20.36)"/>
      <path id="路径_66" data-name="路径 66" class="cls-2" d="M39.893,14A5.139,5.139,0,0,0,34.8,19.093H44.987A5.139,5.139,0,0,0,39.893,14ZM36.56,17.643a3.7,3.7,0,0,1,3.334-2.192,3.615,3.615,0,0,1,3.334,2.192Zm0,0" transform="translate(-30.598 -14)"/>
    </g>
  </g>
</svg>
