<svg id="icon_画板_1_副本" data-name="icon_画板 1 副本" xmlns="http://www.w3.org/2000/svg" width="36.827" height="40.657" viewBox="0 0 36.827 40.657">
  <defs>
    <style>
      .cls-1 {
        fill: #797979;
      }
    </style>
  </defs>
  <path id="路径_18" data-name="路径 18" class="cls-1" d="M46.223,51.046a5.623,5.623,0,1,1,5.623-5.623A5.653,5.653,0,0,1,46.223,51.046Zm0-8.813a3.19,3.19,0,1,0,3.19,3.19A3.2,3.2,0,0,0,46.223,42.233Z" transform="translate(-27.836 -25.094)"/>
  <path id="路径_19" data-name="路径 19" class="cls-1" d="M46.452,51A5.352,5.352,0,1,1,51.8,45.652,5.365,5.365,0,0,1,46.452,51Zm0-8.813a3.46,3.46,0,1,0,3.46,3.46A3.484,3.484,0,0,0,46.452,42.192Z" transform="translate(-28.066 -25.324)"/>
  <path id="路径_20" data-name="路径 20" class="cls-1" d="M35.379,53.257a5.653,5.653,0,0,1-5.623-5.623V46.391c0-.108-.054-.216-.162-.216a14.594,14.594,0,0,1-2.811-1.622.2.2,0,0,0-.162-.054c-.054,0-.108,0-.108.054l-1.081.595a5.767,5.767,0,0,1-2.811.757,5.609,5.609,0,0,1-4.866-2.811,5.621,5.621,0,0,1,2.109-7.677l1.081-.595a.2.2,0,0,0,.108-.27,16.26,16.26,0,0,1,0-3.244.413.413,0,0,0-.108-.27l-1.081-.595a5.5,5.5,0,0,1-2.6-3.406,5.6,5.6,0,0,1,.541-4.271,5.676,5.676,0,0,1,4.866-2.811,5.767,5.767,0,0,1,2.811.757l1.081.595a.189.189,0,0,1,.108.054.2.2,0,0,0,.162-.054c.433-.324.919-.595,1.352-.865.487-.27.973-.541,1.46-.757.108-.054.162-.108.162-.216V18.223a5.623,5.623,0,0,1,11.246,0v1.243c0,.108.054.216.162.216A14.594,14.594,0,0,1,44.029,21.3a.2.2,0,0,0,.162.054c.054,0,.108,0,.108-.054l1.081-.595a5.767,5.767,0,0,1,2.811-.757,5.609,5.609,0,0,1,4.866,2.811,5.372,5.372,0,0,1,.541,4.271A5.5,5.5,0,0,1,51,30.441l-1.081.595a.2.2,0,0,0-.108.27,16.26,16.26,0,0,1,0,3.244.413.413,0,0,0,.108.27L51,35.415a5.5,5.5,0,0,1,2.6,3.406,5.6,5.6,0,0,1-.541,4.271A5.676,5.676,0,0,1,48.192,45.9a5.767,5.767,0,0,1-2.811-.757L44.3,44.552a.189.189,0,0,1-.108-.054.2.2,0,0,0-.162.054c-.433.324-.919.595-1.352.865-.487.27-.973.541-1.46.757-.108.054-.162.108-.162.216v1.243A5.7,5.7,0,0,1,35.379,53.257ZM26.89,41.579a.2.2,0,0,1,.162.054,11.822,11.822,0,0,0,4.92,2.811.25.25,0,0,1,.162.27v2.92a3.19,3.19,0,1,0,6.38,0v-2.92a.3.3,0,0,1,.162-.27,12.623,12.623,0,0,0,2.649-1.135,11.992,11.992,0,0,0,2.271-1.73.2.2,0,0,1,.162-.054c.054,0,.108,0,.108.054l2.541,1.46a3.3,3.3,0,0,0,1.622.433,3.1,3.1,0,0,0,2.757-1.622A3.2,3.2,0,0,0,49.6,37.47l-2.433-1.406a.2.2,0,0,1-.108-.27,12.58,12.58,0,0,0,0-5.677.2.2,0,0,1,.108-.27l2.541-1.46a3.215,3.215,0,0,0-1.568-6,3.465,3.465,0,0,0-1.622.433l-2.541,1.46a.189.189,0,0,0-.108.054.2.2,0,0,1-.162-.054,12.441,12.441,0,0,0-4.92-2.811.25.25,0,0,1-.162-.27V18.223a3.244,3.244,0,0,0-6.488,0v2.92a.3.3,0,0,1-.162.27,12.623,12.623,0,0,0-2.649,1.135,11.992,11.992,0,0,0-2.271,1.73.2.2,0,0,1-.162.054c-.054,0-.108,0-.108-.054l-2.541-1.46a3.3,3.3,0,0,0-1.622-.433,3.1,3.1,0,0,0-2.757,1.622,3.183,3.183,0,0,0,1.189,4.379l2.541,1.46a.2.2,0,0,1,.108.27,12.58,12.58,0,0,0,0,5.677.2.2,0,0,1-.108.27l-2.541,1.46A3.183,3.183,0,0,0,19.862,41.9a3.274,3.274,0,0,0,2.757,1.622,3.465,3.465,0,0,0,1.622-.433l2.541-1.46C26.782,41.579,26.836,41.579,26.89,41.579Z" transform="translate(-16.992 -12.6)"/>
  <path id="路径_21" data-name="路径 21" class="cls-1" d="M35.54,53.27a5.365,5.365,0,0,1-5.352-5.352V46.674a.52.52,0,0,0-.324-.487,17.284,17.284,0,0,1-2.757-1.568.768.768,0,0,0-.324-.108.487.487,0,0,0-.27.054l-1.081.595a5.177,5.177,0,0,1-2.7.7,5.4,5.4,0,0,1-4.65-2.7,5.339,5.339,0,0,1-.541-4.055,5.208,5.208,0,0,1,2.487-3.244l1.081-.595a.645.645,0,0,0,.27-.487,15.721,15.721,0,0,1,0-3.19.473.473,0,0,0-.27-.487l-1.081-.595a5.4,5.4,0,0,1,2.7-10.056,6.1,6.1,0,0,1,2.7.7l1.081.595a.405.405,0,0,0,.27.054.768.768,0,0,0,.324-.108,11.507,11.507,0,0,1,1.352-.865,11.362,11.362,0,0,1,1.406-.7.621.621,0,0,0,.324-.487V18.452a5.352,5.352,0,0,1,10.7,0V19.7a.52.52,0,0,0,.324.487,17.284,17.284,0,0,1,2.757,1.568.768.768,0,0,0,.324.108.487.487,0,0,0,.27-.054l1.081-.595a5.177,5.177,0,0,1,2.7-.7,5.4,5.4,0,0,1,2.7,10.056l-1.081.595a.645.645,0,0,0-.27.487,15.722,15.722,0,0,1,0,3.19.473.473,0,0,0,.27.487l1.081.595a5.4,5.4,0,0,1-2.7,10.056h0a6.1,6.1,0,0,1-2.7-.7l-1.081-.595a.405.405,0,0,0-.27-.054.768.768,0,0,0-.324.108,11.508,11.508,0,0,1-1.352.865,11.363,11.363,0,0,1-1.406.7.621.621,0,0,0-.324.487v1.243A5.379,5.379,0,0,1,35.54,53.27Zm-3.46-5.407a3.46,3.46,0,0,0,6.92,0v-2.92a13.046,13.046,0,0,0,2.7-1.135,12.376,12.376,0,0,0,2.325-1.73l2.541,1.46a3.354,3.354,0,0,0,1.73.487,3.516,3.516,0,0,0,3.028-1.73,3.426,3.426,0,0,0-1.243-4.7l-2.541-1.46a11.645,11.645,0,0,0,0-5.785l2.541-1.46a3.4,3.4,0,0,0,1.243-4.7,3.451,3.451,0,0,0-3.028-1.73,3.354,3.354,0,0,0-1.73.487L44.028,24.4A12.7,12.7,0,0,0,39,21.48V18.452a3.46,3.46,0,0,0-6.92,0v2.92a13.046,13.046,0,0,0-2.7,1.135,12.376,12.376,0,0,0-2.325,1.73l-2.541-1.46a3.354,3.354,0,0,0-1.73-.487,3.516,3.516,0,0,0-3.028,1.73A3.426,3.426,0,0,0,21,28.725l2.541,1.46a11.645,11.645,0,0,0,0,5.785L21,37.429a3.537,3.537,0,0,0-1.622,2.109,3.736,3.736,0,0,0,.324,2.649,3.451,3.451,0,0,0,3.028,1.73,3.354,3.354,0,0,0,1.73-.487L27,41.971a12.7,12.7,0,0,0,5.028,2.92v2.974Z" transform="translate(-17.154 -12.83)"/>
</svg>
