<svg xmlns="http://www.w3.org/2000/svg" width="18" height="20.757" viewBox="0 0 18 20.757">
  <defs>
    <style>
      .cls-1 {
        fill: #fff;
      }
    </style>
  </defs>
  <path id="路径_108" data-name="路径 108" class="cls-1" d="M-20.215,137.912a6.615,6.615,0,0,0-3.835,1.063v-4.062c0-1.559-2.046-2.777-4.727-2.777s-4.77,1.221-4.77,2.777v12.1h.007c.085,1.511,2.139,2.679,4.763,2.679l0-.64-.005,1.066v.1h.008c.087,1.511,2.148,2.679,4.772,2.679,2.654,0,4.736-1.2,4.778-2.732h.005v-.755c2.159-.258,3.63-1.336,3.665-2.672h.005v-6.043c0-1.558-1.987-2.779-4.668-2.779Zm-8.562-4.778c2.228,0,3.782.938,3.782,1.779s-1.554,1.778-3.782,1.778c-2.114,0-3.617-.843-3.767-1.648v-.13h-.015C-32.559,134.072-31.006,133.134-28.777,133.134Zm0,7.554c-2.151,0-3.67-.873-3.772-1.691v-.175a.725.725,0,0,1,.037-.16,6.509,6.509,0,0,0,3.735,1.026,6.505,6.505,0,0,0,3.734-1.026.779.779,0,0,1,.048.248C-25,139.753-26.549,140.688-28.777,140.688Zm3.782.223c0,.841-1.554,1.779-3.782,1.779-2.171,0-3.7-.888-3.775-1.714v-.142a.706.706,0,0,1,.038-.173,6.49,6.49,0,0,0,3.734,1.028,6.508,6.508,0,0,0,3.735-1.026A.736.736,0,0,1-25,140.911Zm-3.782-2.221c-2.134,0-3.645-.858-3.77-1.669v-.207a.9.9,0,0,1,.035-.15,6.508,6.508,0,0,0,3.735,1.025,6.5,6.5,0,0,0,3.737-1.028.779.779,0,0,1,.045.25C-25,137.752-26.549,138.69-28.777,138.69Zm.007,9.36c0,.023-.007.045-.007.068s.005.057.007.085l0,.485h-.005c-2.229,0-3.78-.936-3.782-1.776a.748.748,0,0,1,.045-.25,6.5,6.5,0,0,0,3.737,1.028h.01l0,.36Zm0-.525,0-.836h-.013c-2.209,0-3.752-.92-3.779-1.756v-.042a.8.8,0,0,1,.045-.228,6.505,6.505,0,0,0,3.734,1.026l.06,0a1.77,1.77,0,0,0-.06.43c0,.055.01.113.013.168Zm-.007-2.834c-2.189,0-3.725-.906-3.777-1.734v-.09a.728.728,0,0,1,.042-.2,6.493,6.493,0,0,0,3.735,1.025,6.508,6.508,0,0,0,3.734-1.025.773.773,0,0,1,.048.247.907.907,0,0,1-.188.515,5.332,5.332,0,0,0-2.894,1.231c-.225.018-.458.033-.7.033Zm4.78,7.2c-2.226,0-3.777-.936-3.782-1.776v-.005a.8.8,0,0,1,.047-.245A6.512,6.512,0,0,0-24,150.894a6.513,6.513,0,0,0,3.734-1.025.773.773,0,0,1,.048.247C-20.215,150.959-21.768,151.9-24,151.9Zm0-2c-2.174,0-3.7-.89-3.775-1.713v-.125a.735.735,0,0,1,.04-.188A6.511,6.511,0,0,0-24,148.9a6.5,6.5,0,0,0,3.737-1.028.78.78,0,0,1,.045.251C-20.215,148.958-21.768,149.9-24,149.9Zm0-2c-2.119,0-3.625-.846-3.767-1.653v-.126h-.015c0-.84,1.553-1.778,3.782-1.778s3.782.938,3.782,1.778S-21.768,147.9-24,147.9Zm4.783.5v-.993a5.935,5.935,0,0,0,2.734-.963.805.805,0,0,1,.047.248C-16.433,147.4-17.536,148.173-19.214,148.4Zm0-2v-.28a1.721,1.721,0,0,0-.153-.7,6.035,6.035,0,0,0,2.887-.978.805.805,0,0,1,.047.248c0,.708-1.1,1.48-2.781,1.708Zm-.921-1.933a6.144,6.144,0,0,0-3.547-1.116,1.056,1.056,0,0,1-.3-.575v-.163a.684.684,0,0,1,.038-.17,6.505,6.505,0,0,0,3.734,1.025,6.5,6.5,0,0,0,3.738-1.028.78.78,0,0,1,.045.251c0,.83-1.521,1.753-3.7,1.776Zm-.08-2c-2.116,0-3.622-.846-3.767-1.651v-.128H-24c0-.84,1.553-1.778,3.782-1.778s3.782.935,3.782,1.778S-17.986,142.467-20.215,142.467Z" transform="translate(33.547 -132.136)"/>
</svg>
