<svg xmlns="http://www.w3.org/2000/svg" width="18" height="18.395" viewBox="0 0 18 18.395">
  <defs>
    <style>
      .cls-1 {
        fill: #fff;
      }
    </style>
  </defs>
  <g id="组_103" data-name="组 103" transform="translate(30.117 -5.222)">
    <path id="路径_89" data-name="路径 89" class="cls-1" d="M-18.215,14.034h-6.178a.6.6,0,0,1-.6-.605.6.6,0,0,1,.6-.6h6.178a.6.6,0,0,1,.6.6.605.605,0,0,1-.6.605Zm0,2.755h-6.178a.6.6,0,0,1-.6-.6.6.6,0,0,1,.6-.6h6.178a.6.6,0,0,1,.6.6.6.6,0,0,1-.6.6Z"/>
    <path id="路径_90" data-name="路径 90" class="cls-1" d="M-21.148,19.906a.6.6,0,0,1-.6-.6V13.429a.6.6,0,0,1,.6-.6.6.6,0,0,1,.6.6V19.3A.6.6,0,0,1-21.148,19.906Z"/>
    <path id="路径_91" data-name="路径 91" class="cls-1" d="M-21.372,13.678A.6.6,0,0,1-21.8,13.5l-2.976-2.978a.6.6,0,0,1-.015-.854.6.6,0,0,1,.854-.015l.015.015,2.978,2.978a.6.6,0,0,1,0,.854A.6.6,0,0,1-21.372,13.678Z"/>
    <path id="路径_92" data-name="路径 92" class="cls-1" d="M-20.926,13.721a.6.6,0,0,1-.6-.6.6.6,0,0,1,.177-.428l2.978-2.977a.6.6,0,0,1,.854-.015.6.6,0,0,1,.015.854l-.015.015L-20.5,13.544A.6.6,0,0,1-20.926,13.721Z"/>
    <path id="路径_93" data-name="路径 93" class="cls-1" d="M-29.472,13.345a.644.644,0,0,1-.645-.644.651.651,0,0,1,.012-.124A9.111,9.111,0,0,1-21.17,5.222a9.106,9.106,0,0,1,8.918,7.269.645.645,0,0,1-.5.761.645.645,0,0,1-.761-.5A7.816,7.816,0,0,0-21.17,6.511a7.824,7.824,0,0,0-7.671,6.313A.644.644,0,0,1-29.472,13.345Z"/>
    <path id="路径_94" data-name="路径 94" class="cls-1" d="M-29.456,13.386a.646.646,0,0,1-.642-.648.647.647,0,0,1,.388-.588l2.122-.914a.645.645,0,0,1,.848.336.644.644,0,0,1-.337.847h0l-2.124.913A.635.635,0,0,1-29.456,13.386Zm8.39,10.231a9.106,9.106,0,0,1-8.918-7.269.645.645,0,0,1,.5-.761.644.644,0,0,1,.761.5h0a7.817,7.817,0,0,0,7.655,6.239,7.822,7.822,0,0,0,7.67-6.313.645.645,0,0,1,.752-.516.644.644,0,0,1,.516.751l0,.011a9.115,9.115,0,0,1-8.936,7.356Z"/>
    <path id="路径_95" data-name="路径 95" class="cls-1" d="M-14.9,17.655a.644.644,0,0,1-.645-.644.643.643,0,0,1,.39-.592l2.123-.914a.646.646,0,0,1,.852.325.646.646,0,0,1-.326.852l-.016.007-2.124.914a.652.652,0,0,1-.254.052Z"/>
  </g>
</svg>
