<svg xmlns="http://www.w3.org/2000/svg" width="18" height="15.746" viewBox="0 0 18 15.746">
  <defs>
    <style>
      .cls-1 {
        fill: #fff;
      }
    </style>
  </defs>
  <path id="路径_164" data-name="路径 164" class="cls-1" d="M-146.926,87.159q-2.1-3.613-4.181-7.239a.52.52,0,0,0-.523-.3q-4.189.014-8.382,0a.517.517,0,0,0-.52.306q-2.081,3.625-4.184,7.24a.567.567,0,0,0,0,.655q2.084,3.594,4.149,7.2a.6.6,0,0,0,.608.345c1.38-.015,2.76-.006,4.138-.006s2.76-.009,4.139.008a.592.592,0,0,0,.6-.347q2.064-3.606,4.153-7.2a.573.573,0,0,0,0-.662Zm-2.009,2.613c-.859,1.491-1.728,2.975-2.572,4.473a.638.638,0,0,1-.646.371c-2.448-.013-4.9-.009-7.344-.007a.552.552,0,0,1-.59-.28c-1.172-2.063-2.368-4.114-3.553-6.169a1.87,1.87,0,0,1-.093-.243c.67,0,1.3-.013,1.929.006a.486.486,0,0,0,.512-.315c.61-1.171,1.239-2.333,1.912-3.6.751,3.115,1.478,6.125,2.237,9.271.908-2.465,1.76-4.787,2.665-7.25.66,1.8,1.279,3.479,1.927,5.245l1.986-4.271c.059.026.1.033.106.05a1.221,1.221,0,0,0,1.6.975,5.9,5.9,0,0,1,.929-.007c-.359.623-.678,1.185-1,1.747Zm-.349-2.578c-.239,0-.259-.187-.333-.332-.3-.59-.6-1.183-.937-1.847-.651,1.4-1.261,2.713-1.9,4.1-.671-1.833-1.316-3.591-2.01-5.49-.846,2.294-1.647,4.466-2.448,6.64h-.1q-1.019-4.212-2.038-8.431c-.2.018-.21.207-.277.328-.823,1.53-1.645,3.06-2.451,4.6a.508.508,0,0,1-.549.336c-.457-.028-.92-.006-1.454-.006.291-.508.545-.951.8-1.394.946-1.64,1.9-3.276,2.83-4.924a.677.677,0,0,1,.684-.4c2.432.017,4.865.011,7.3.007a.6.6,0,0,1,.634.3c1.2,2.112,2.419,4.208,3.63,6.309a1.783,1.783,0,0,1,.078.2c-.507,0-.978-.007-1.451,0Z" transform="translate(164.82 -79.618)"/>
</svg>
