<svg xmlns="http://www.w3.org/2000/svg" width="16" height="16" viewBox="0 0 16 16">
  <defs>
    <style>
      .cls-1 {
        fill: #fff;
      }
    </style>
  </defs>
  <path id="路径_158" data-name="路径 158" class="cls-1" d="M-80.459,118.3h-4.42a.536.536,0,0,1-.537-.537.536.536,0,0,1,.537-.537h3.991a.251.251,0,0,0,.251-.251v-3.991h0a.535.535,0,0,1,.553-.518.536.536,0,0,1,.519.518h0v4.42a.9.9,0,0,1-.9.9Zm.358-10.148a.537.537,0,0,1-.537-.537h0v-3.991a.251.251,0,0,0-.251-.251H-84.88a.536.536,0,0,1-.537-.537.536.536,0,0,1,.537-.537h4.42a.9.9,0,0,1,.9.9v4.42a.538.538,0,0,1-.537.537Zm-10.148-4.78H-94.24a.25.25,0,0,0-.251.251v3.991a.538.538,0,0,1-.537.537.537.537,0,0,1-.537-.537V103.2a.9.9,0,0,1,.894-.9h4.421a.536.536,0,0,1,.518.553A.536.536,0,0,1-90.248,103.373Zm-4.779,9.092a.537.537,0,0,1,.536.519h0v3.991a.25.25,0,0,0,.251.251h3.991a.536.536,0,0,1,.518.554.537.537,0,0,1-.518.518H-94.67a.9.9,0,0,1-.894-.9h0v-4.42h0A.536.536,0,0,1-95.027,112.465Zm9.7-5.1a.89.89,0,0,1,.291-.575l0,0,.03-.027.012-.009.023-.018.015-.011.02-.014.017-.011.02-.012.017-.011.021-.012.016-.008.023-.012.015-.007.026-.012.012,0,.029-.011.009,0,.033-.011.007,0,.036-.01h0l.038-.008h0l.039-.007h0a.93.93,0,0,1,.253,0h0l.04.007h0l.038.008h0l.036.01.007,0,.033.011.009,0,.029.011.012,0,.026.012.015.007.023.012.016.008.021.012.018.011.02.012.017.011.02.014.015.011.023.018.012.009.03.027,0,0,.036.034,1.77,1.77a.9.9,0,0,1,.262.633H-92.934a.537.537,0,0,1-.537-.537.537.537,0,0,1,.537-.537h7.606v-.788Zm-4.649,6.445,0,0-.03.027-.012.009-.023.018-.015.011-.02.014-.017.011-.02.012-.018.011-.021.012-.016.008-.023.012-.014.007-.027.012-.012,0-.03.011-.009,0-.033.011-.007,0-.036.01h0l-.038.008h0l-.04.007h0a.93.93,0,0,1-.253,0h0l-.039-.007h0l-.038-.008h0l-.036-.01-.006,0-.034-.011-.009,0-.029-.011-.012,0-.026-.012-.014-.007-.024-.012-.016-.008-.021-.012-.017-.011-.02-.012-.017-.011-.02-.014-.015-.011-.023-.018-.012-.009-.03-.027,0,0-.036-.034-1.77-1.77a.9.9,0,0,1-.262-.633H-82.07a.537.537,0,0,1,.537.537.537.537,0,0,1-.537.537h-7.606v.788h0A.9.9,0,0,1-89.971,113.81Z" transform="translate(95.564 -102.3)"/>
</svg>
