<svg xmlns="http://www.w3.org/2000/svg" width="19.004" height="15.844" viewBox="0 0 19.004 15.844">
  <defs>
    <style>
      .cls-1 {
        fill: none;
        stroke: #fff;
      }
    </style>
  </defs>
  <path id="路径_96" data-name="路径 96" class="cls-1" d="M-12.7,38.086l-.878.4a.122.122,0,0,1-.122-.014l-.882-.684-.014-.012-.908-.951a.123.123,0,0,0-.076-.036l-.59-.052a.115.115,0,0,0-.076.02l-.5.328a.125.125,0,0,0-.05.066l-.347,1.177a.119.119,0,0,1-.07.078l-.4.158a.119.119,0,0,0-.076.112v.406a.122.122,0,0,0,.094.118l.811.174a.12.12,0,0,1,.04.218l-.789.51-.012.008-1.706,1.422a.12.12,0,0,1-.072.028l-.762.028a.109.109,0,0,0-.044.01l-.74.328a.117.117,0,0,1-.1,0l-.985-.476a.121.121,0,0,0-.038-.012l-1.29-.154a.119.119,0,0,1-.1-.074l-.182-.446a.114.114,0,0,0-.06-.062l-1.114-.536a.119.119,0,0,1-.068-.1l-.022-.24V39.81l.014-.51a.126.126,0,0,0-.018-.066l-.474-.758a.121.121,0,0,0-.162-.04l-.772.458-.025.018-.172.172a.125.125,0,0,1-.1.034l-.392-.054a.121.121,0,0,0-.126.07l-.186.416a.118.118,0,0,1-.112.07l-.506-.012a.121.121,0,0,0-.118.084l-.284.926a.117.117,0,0,1-.09.082l-1.348.284a.063.063,0,0,0-.018.006l-.74.276a.12.12,0,0,0-.076.134l.056.31.006.022.49,1.245,0,.006a10.379,10.379,0,0,1,.45,1.076c-.006.078-.218.624-.292.808a.116.116,0,0,0,.014.114l.192.264a.1.1,0,0,0,.02.022l1.612,1.344a.134.134,0,0,0,.028.018l2.489,1.1a.135.135,0,0,0,.074.008l1.494-.326a.123.123,0,0,1,.084.012l.582.32a.118.118,0,0,1,.056.14l-.354,1.15a.116.116,0,0,0,.038.126l1.282,1.086a.122.122,0,0,0,.122.02l1.575-.626a.117.117,0,0,1,.106.01l1.026.626.01.006.46.344a.111.111,0,0,0,.034.018l.2.066a.119.119,0,0,0,.156-.1l.022-.21a.116.116,0,0,1,.062-.092l2.573-1.42a.116.116,0,0,0,.048-.05l.916-1.768a.118.118,0,0,0,.014-.058l-.042-1.413a.109.109,0,0,0-.028-.072l-.544-.658-.39-.494a.12.12,0,0,1,0-.15l.6-.728a.13.13,0,0,1,.042-.032h0a.12.12,0,0,0-.02-.224l-.274-.076a.156.156,0,0,0-.032,0H-16.3a.119.119,0,0,1-.1-.048l-.18-.248a.122.122,0,0,1,.022-.166l.888-.7a.12.12,0,0,1,.194.1l-.008.159a.12.12,0,0,0,.168.116l.376-.168a.112.112,0,0,0,.03-.02l1.768-1.575a.119.119,0,0,0,.04-.08l.078-.94a.119.119,0,0,1,.114-.11l.178-.006a.118.118,0,0,0,.114-.112l.084-1.162a.121.121,0,0,0-.17-.12Zm-2.16,10.41-.256.78.33.464.256-.494.2-.524-.136-.374-.39.148ZM-19.022,51l-.36.224.256.3.33-.074.376-.361-.12-.21-.482.12Z" transform="translate(31.034 -36.233)"/>
</svg>
