<svg id="icon_画板_1_副本_9" data-name="icon_画板 1 副本 9" xmlns="http://www.w3.org/2000/svg" width="36.71" height="31.903" viewBox="0 0 36.71 31.903">
  <defs>
    <style>
      .cls-1 {
        fill: #fff;
      }
    </style>
  </defs>
  <path id="路径_16" data-name="路径 16" class="cls-1" d="M19.217,52.675a1.428,1.428,0,0,1,1.517,1.517v6.12a1.517,1.517,0,1,1-3.034,0v-6.12a1.428,1.428,0,0,1,1.517-1.517ZM29.94,43.469a1.428,1.428,0,0,1,1.517,1.517V60.365a1.517,1.517,0,0,1-3.034,0V44.986a1.428,1.428,0,0,1,1.517-1.517Zm9.258,6.12a1.428,1.428,0,0,1,1.517,1.517v9.206a1.517,1.517,0,0,1-3.034,0V51.106A1.4,1.4,0,0,1,39.2,49.589ZM49.922,41.9a1.428,1.428,0,0,1,1.517,1.517v16.9a1.428,1.428,0,0,1-1.517,1.517A1.456,1.456,0,0,1,48.4,60.312V43.469A1.442,1.442,0,0,1,49.922,41.9Zm0,0" transform="translate(-15.691 -29.978)"/>
  <path id="路径_17" data-name="路径 17" class="cls-1" d="M28.265,25.067,16.5,36.836a1.535,1.535,0,1,1-2.2-2.145l12.5-12.5a2.084,2.084,0,0,1,2.982,0l7.689,7.794L47.933,19.575a1.535,1.535,0,1,1,2.2,2.145L38.988,32.809a2.084,2.084,0,0,1-2.982,0Z" transform="translate(-13.859 -19.108)"/>
</svg>
