<svg xmlns="http://www.w3.org/2000/svg" width="11.974" height="18" viewBox="0 0 11.974 18">
  <defs>
    <style>
      .cls-1 {
        fill: #fff;
      }
    </style>
  </defs>
  <path id="路径_168" data-name="路径 168" class="cls-1" d="M-122,6.6H-123.4a.273.273,0,0,0-.237.138l-3.845,6.811a.273.273,0,0,1-.475,0l-3.8-6.808a.272.272,0,0,0-.238-.139h-1.431a.272.272,0,0,0-.237.405l4.608,8.19a.272.272,0,0,1-.237.405h-3.575a.272.272,0,0,0-.272.272v.885a.272.272,0,0,0,.272.272h3.994a.272.272,0,0,1,.272.272v1.336a.272.272,0,0,1-.272.272h-3.994a.272.272,0,0,0-.272.272v.91a.272.272,0,0,0,.272.272h3.994a.272.272,0,0,1,.272.272v3.693a.272.272,0,0,0,.272.272h1.211a.272.272,0,0,0,.272-.272V20.635a.272.272,0,0,1,.272-.272h4.044a.272.272,0,0,0,.272-.272v-.91a.272.272,0,0,0-.272-.272h-4.044a.272.272,0,0,1-.272-.272V17.3a.272.272,0,0,1,.272-.272h4.044a.272.272,0,0,0,.272-.272v-.885a.272.272,0,0,0-.272-.272h-3.624a.272.272,0,0,1-.237-.406l4.63-8.188A.272.272,0,0,0-122,6.6Z" transform="translate(133.697 -6.6)"/>
</svg>
