<svg xmlns="http://www.w3.org/2000/svg" width="14.315" height="14.632" viewBox="0 0 14.315 14.632">
  <defs>
    <style>
      .cls-1 {
        fill: #fff;
      }
    </style>
  </defs>
  <path id="路径_160" data-name="路径 160" class="cls-1" d="M-91.759,132.011v2.125a.971.971,0,0,0,.972.973h9.667a.972.972,0,0,0,.973-.973v-2.125a.972.972,0,0,0-.973-.973h-9.667A.975.975,0,0,0-91.759,132.011Zm10.315.324v1.477h-9.019v-1.477Zm-10.315,4.956v2.126a.971.971,0,0,0,.972.972h12.371a.972.972,0,0,0,.972-.972v-2.126a.972.972,0,0,0-.972-.972H-90.787A.974.974,0,0,0-91.759,137.291Zm13.019.324v1.478H-90.463v-1.478Zm-13.019,4.957V144.7a.971.971,0,0,0,.972.972h6.112a.972.972,0,0,0,.973-.972v-2.126a.972.972,0,0,0-.973-.973h-6.112a.975.975,0,0,0-.972.973Zm6.76.324v1.477h-5.464V142.9Z" transform="translate(91.759 -131.038)"/>
</svg>
