<svg xmlns="http://www.w3.org/2000/svg" width="37.943" height="37.845" viewBox="0 0 37.943 37.845">
  <defs>
    <style>
      .cls-1 {
        fill: #fff;
      }
    </style>
  </defs>
  <path id="icon_画板_1_副本_8" data-name="icon_画板 1 副本 8" class="cls-1" d="M30.547,19.313A10.034,10.034,0,1,0,40.581,29.347,10.051,10.051,0,0,0,30.547,19.313Zm0,17.729A7.744,7.744,0,1,1,38.292,29.3a7.733,7.733,0,0,1-7.744,7.744Zm0-20.262a1.1,1.1,0,0,0,1.12-1.12V11.52a1.12,1.12,0,1,0-2.241,0v4.14a1.133,1.133,0,0,0,1.12,1.12ZM20.075,20.434a1.115,1.115,0,0,0,.779.341.969.969,0,0,0,.779-.341,1.147,1.147,0,0,0,0-1.607L18.711,15.9a1.175,1.175,0,0,0-.828-.341,1.141,1.141,0,0,0-.828.341,1.175,1.175,0,0,0-.341.828,1.141,1.141,0,0,0,.341.828ZM17.981,29.3a1.1,1.1,0,0,0-1.12-1.12H12.72a1.12,1.12,0,1,0,0,2.241h4.14a1.074,1.074,0,0,0,1.12-1.12Zm2.094,8.913-2.922,2.922a1.175,1.175,0,0,0-.341.828,1.141,1.141,0,0,0,.341.828,1.115,1.115,0,0,0,.779.341.969.969,0,0,0,.779-.341l2.922-2.922a1.147,1.147,0,0,0,0-1.607,1.049,1.049,0,0,0-1.559-.049Zm10.472,3.653a1.1,1.1,0,0,0-1.12,1.12v4.14a1.12,1.12,0,1,0,2.241,0v-4.14a1.1,1.1,0,0,0-1.12-1.12Zm10.472-3.653a1.175,1.175,0,0,0-.828-.341,1.141,1.141,0,0,0-.828.341,1.175,1.175,0,0,0-.341.828,1.141,1.141,0,0,0,.341.828l2.922,2.922a1.115,1.115,0,0,0,.779.341.969.969,0,0,0,.779-.341,1.147,1.147,0,0,0,0-1.607Zm7.4-10.034h-4.14a1.12,1.12,0,1,0,0,2.241h4.14a1.12,1.12,0,0,0,0-2.241Zm-8.183-7.4a.969.969,0,0,0,.779-.341l2.922-2.922a1.147,1.147,0,0,0,0-1.607,1.175,1.175,0,0,0-.828-.341,1.141,1.141,0,0,0-.828.341l-2.922,2.922a1.175,1.175,0,0,0-.341.828,1.141,1.141,0,0,0,.341.828,1.571,1.571,0,0,0,.877.292Zm0,0" transform="translate(-11.6 -10.4)"/>
</svg>
