<svg id="icon_画板_1_副本_2" data-name="icon_画板 1 副本 2" xmlns="http://www.w3.org/2000/svg" width="44.874" height="38.494" viewBox="0 0 44.874 38.494">
  <defs>
    <style>
      .cls-1 {
        fill: #fff;
      }
    </style>
  </defs>
  <path id="路径_4" data-name="路径 4" class="cls-1" d="M48.738,52.294a1.043,1.043,0,0,1-.541-.162l-3.514-2a.487.487,0,0,0-.27-.054H44.3a17.163,17.163,0,0,1-4.109.649c-5.569,0-10.543-2.974-12.651-7.569a.52.52,0,0,0-.487-.324H27a11.76,11.76,0,0,1-1.352.054,15.09,15.09,0,0,1-2.541-.216c-.865-.162-1.73-.378-2.6-.595h-.108a.487.487,0,0,0-.27.054L15.65,44.617a1.069,1.069,0,0,1-.541.108,1.325,1.325,0,0,1-.649-.216,1,1,0,0,1-.324-1.135l1.081-3.622a.61.61,0,0,0-.162-.595C12.244,36.94,9,33.209,9,28.343c.054-8,7.515-14.543,16.6-14.543,8.164,0,15.03,5.082,16.382,12.111a.587.587,0,0,0,.433.433c6.6,1.027,11.408,6.109,11.462,12.057,0,4.055-2.649,7.137-4.812,9.083a.549.549,0,0,0-.162.541l.811,2.865a1.121,1.121,0,0,1-.378,1.135A.868.868,0,0,1,48.738,52.294ZM40.2,28.235c-6.488,0-11.57,4.487-11.57,10.164S33.708,48.564,40.2,48.564a18.675,18.675,0,0,0,4.109-.7l.973.108.541.324a.487.487,0,0,0,.27.054.768.768,0,0,0,.324-.108.512.512,0,0,0,.162-.595v-.054a1.027,1.027,0,0,1,.378-1.135c3.136-2.433,4.812-5.3,4.812-8.11,0-5.352-5.407-10.11-11.57-10.11ZM25.6,15.909c-7.677,0-14.489,5.785-14.489,12.435,0,3.406,2.109,6.92,6,9.84a1.027,1.027,0,0,1,.378,1.135l-.27.865a.61.61,0,0,0,.162.595.768.768,0,0,0,.324.108.487.487,0,0,0,.27-.054l1.514-.865.973-.108.378.108c.919.216,1.73.433,2.6.595a10.965,10.965,0,0,0,2.217.216h.487a.362.362,0,0,0,.378-.216c.054-.162.162-.27.108-.433a10.23,10.23,0,0,1-.162-1.676c0-6.542,5.515-11.786,12.759-12.219a.667.667,0,0,0,.433-.216.423.423,0,0,0,.054-.433C38.2,19.855,32.356,15.963,25.6,15.909Z" transform="translate(-9 -13.8)"/>
  <path id="路径_5" data-name="路径 5" class="cls-1" d="M43.588,46.649a.686.686,0,0,1-.324-.054,1.567,1.567,0,0,1-1.243-1.568,1.615,1.615,0,0,1,1.3-1.568c.108,0,.216-.054.324-.054a1.627,1.627,0,0,1,1.622,1.622A1.749,1.749,0,0,1,43.588,46.649Zm7.461,0a1.823,1.823,0,0,1-.919-.27,1.883,1.883,0,0,1-.595-.7,1.164,1.164,0,0,1-.108-.595,1.944,1.944,0,0,1,.108-.595,1.5,1.5,0,0,1,.595-.7,1.823,1.823,0,0,1,.919-.27,1.616,1.616,0,0,1,1.622,1.568A1.653,1.653,0,0,1,51.049,46.649ZM35.532,34.917a2.111,2.111,0,0,1-2.109-2.109A2.147,2.147,0,0,1,35.532,30.7a2.109,2.109,0,1,1,0,4.217Zm-9.624,0A2.111,2.111,0,0,1,23.8,32.809,2.147,2.147,0,0,1,25.909,30.7a1.963,1.963,0,0,1,1.514.649,2.124,2.124,0,0,1,.595,1.514A2.066,2.066,0,0,1,25.909,34.917Z" transform="translate(-15.798 -21.563)"/>
</svg>
