<svg xmlns="http://www.w3.org/2000/svg" width="39.116" height="31.386" viewBox="0 0 39.116 31.386">
  <defs>
    <style>
      .cls-1 {
        fill: none;
      }

      .cls-2 {
        fill: #ffff7b;
      }
    </style>
  </defs>
  <g id="icon_画板_1_副本_6" data-name="icon_画板 1 副本 6" transform="translate(-73.492 -185.025)">
    <path id="路径_11" data-name="路径 11" class="cls-1" d="M55.069,32.909a16.03,16.03,0,0,1,3.7,10.229A11.581,11.581,0,0,1,54.679,52.1c3.945.731,8.524-.974,11.641-4.822,2.825-3.458,3.02-13.2,2.289-21.139a.454.454,0,0,0-.195-.341.372.372,0,0,0-.244-.1h-.146c-2.484.731-9.449,2.922-14.125,5.894C54.338,32.081,54.728,32.47,55.069,32.909Z" transform="translate(41.179 161.73)"/>
    <path id="路径_12" data-name="路径 12" class="cls-2" d="M48.312,23.362a2.825,2.825,0,0,0-1.266-2.094,2.89,2.89,0,0,0-2.435-.39h0C40.422,22.1,33.7,24.385,29.17,27.551c-4.53-3.117-11.3-5.407-15.489-6.673a2.92,2.92,0,0,0-3.7,2.484C9.493,28.574,8.713,41.287,12.8,46.255a15.381,15.381,0,0,0,11.738,5.894,11.155,11.155,0,0,0,4.578-.925,12.392,12.392,0,0,0,4.578.925,15.381,15.381,0,0,0,11.738-5.894C49.53,41.335,48.8,28.623,48.312,23.362Zm-21.918,26.2c-3.945.731-8.524-.974-11.641-4.822-2.825-3.458-3.02-13.2-2.289-21.139a.454.454,0,0,1,.195-.341.372.372,0,0,1,.244-.1h.146c2.484.731,9.449,2.922,14.125,5.894a23.641,23.641,0,0,1,2,1.461,10.347,10.347,0,0,1,1.266,1.266,13.428,13.428,0,0,1,3.166,8.67,9,9,0,0,1-4.432,7.988A7.583,7.583,0,0,1,26.394,49.567Zm17.194-4.822c-3.117,3.8-7.744,5.553-11.641,4.822A11.581,11.581,0,0,0,36.038,40.6a15.934,15.934,0,0,0-3.7-10.229,9.149,9.149,0,0,0-1.169-1.218C35.843,26.187,42.808,24,45.292,23.265h.146a.372.372,0,0,1,.244.1.454.454,0,0,1,.195.341C46.656,31.545,46.461,41.287,43.588,44.745Z" transform="translate(63.912 164.263)"/>
  </g>
</svg>
