<svg xmlns="http://www.w3.org/2000/svg" width="18" height="16.976" viewBox="0 0 18 16.976">
  <defs>
    <style>
      .cls-1 {
        fill: #fff;
      }
    </style>
  </defs>
  <g id="组_929" data-name="组 929" transform="translate(94.408 -83.873)">
    <path id="路径_154" data-name="路径 154" class="cls-1" d="M-90.945,98.635h2.126a.972.972,0,0,0,.972-.973V88a.971.971,0,0,0-.972-.972h-2.126a.97.97,0,0,0-.972.972v9.667A.975.975,0,0,0-90.945,98.635Zm.324-10.316h1.478v9.019h-1.478Zm4.957,10.316h2.125a.972.972,0,0,0,.973-.973V85.291a.972.972,0,0,0-.973-.972h-2.125a.972.972,0,0,0-.973.972V97.662A.976.976,0,0,0-85.664,98.635Zm.324-13.02h1.477V97.338H-85.34Zm4.956,13.02h2.126a.972.972,0,0,0,.972-.973V91.55a.972.972,0,0,0-.972-.973h-2.126a.972.972,0,0,0-.972.973v6.112a.975.975,0,0,0,.972.973Zm.324-6.761h1.478v5.464H-80.06Z"/>
    <path id="路径_155" data-name="路径 155" class="cls-1" d="M-77.059,99.553H-93.111V84.521a.647.647,0,0,0-.649-.648.647.647,0,0,0-.648.648v15.667a.632.632,0,0,0,.133.391.652.652,0,0,0,.526.27h16.693a.647.647,0,0,0,.648-.648.653.653,0,0,0-.651-.648Z"/>
  </g>
</svg>
