<svg xmlns="http://www.w3.org/2000/svg" width="30" height="30" viewBox="0 0 30 30">
  <defs>
    <style>
      .cls-1 {
        fill: #b02cd1;
      }

      .cls-2 {
        fill: #fff;
      }
    </style>
  </defs>
  <g id="组_79" data-name="组 79" transform="translate(-445 -286)">
    <circle id="椭圆_24" data-name="椭圆 24" class="cls-1" cx="15" cy="15" r="15" transform="translate(445 286)"/>
    <g id="icon_画板_1_副本_18" data-name="icon_画板 1 副本 18" transform="translate(450.25 292)">
      <path id="路径_67" data-name="路径 67" class="cls-2" d="M48.989,46.1A1.189,1.189,0,1,1,47.8,47.289,1.184,1.184,0,0,1,48.989,46.1Zm0,0" transform="translate(-39.446 -37.697)"/>
      <path id="路径_68" data-name="路径 68" class="cls-2" d="M24.548,20.5a2.2,2.2,0,1,1-2.2,2.2,2.2,2.2,0,0,1,2.2-2.2Zm2.387-2.7a5.688,5.688,0,0,0-2.387-.551,6.912,6.912,0,0,0-.734.052l-.367-1.81a1.251,1.251,0,1,0-.6.131l.341,1.81a5.5,5.5,0,0,0-2.439,1.364l-.734-.682a.511.511,0,0,0,.026-.21.708.708,0,1,0-.708.708.932.932,0,0,0,.262-.052l.734.682a5.524,5.524,0,0,0-1.1,2.177l-.6-.1a.959.959,0,0,0-.944-.787.944.944,0,1,0,0,1.889.926.926,0,0,0,.813-.472l.6.1a5.968,5.968,0,0,0-.052.682,5.374,5.374,0,0,0,.656,2.6l-2.571,1.6a1.278,1.278,0,0,0-.866-.341,1.259,1.259,0,1,0,1.259,1.259,1.548,1.548,0,0,0-.052-.367l2.571-1.6a8.164,8.164,0,0,0,.6.734A5.631,5.631,0,0,0,22.5,27.841l-.656,2.02a.918.918,0,0,0-.918.944.944.944,0,1,0,1.889,0,1.012,1.012,0,0,0-.367-.761l.656-2.02a6.12,6.12,0,0,0,1.39.184,5.054,5.054,0,0,0,.63-.026l.052.289a.7.7,0,0,0-.289.577.708.708,0,1,0,.918-.682v-.341a5.355,5.355,0,0,0,2.439-1.285l1.5,1.469a1.318,1.318,0,0,0-.157.63,1.259,1.259,0,1,0,1.259-1.259,1.363,1.363,0,0,0-.656.184l-1.5-1.469a5.57,5.57,0,0,0,1.338-3.279h1.941a.944.944,0,1,0,0-.63H30.03a5.536,5.536,0,0,0-1.312-3.253l2.964-2.859a.831.831,0,0,0,.42.1.944.944,0,1,0-.944-.944,1.052,1.052,0,0,0,.079.393l-2.99,2.859a5.282,5.282,0,0,0-.761-.577l.813-1.443c.052,0,.1.026.157.026a.936.936,0,1,0-.708-.315Zm0,0" transform="translate(-15 -13.1)"/>
    </g>
  </g>
</svg>
