<svg id="icon_画板_1_副本_7" data-name="icon_画板 1 副本 7" xmlns="http://www.w3.org/2000/svg" width="30.93" height="33.657" viewBox="0 0 30.93 33.657">
  <defs>
    <style>
      .cls-1 {
        fill: #fff;
      }
    </style>
  </defs>
  <g id="组_13" data-name="组 13" transform="translate(0.857 12.226)">
    <path id="路径_13" data-name="路径 13" class="cls-1" d="M42.4,64.431H22.822A4.833,4.833,0,0,1,18,59.609V44.218a1.218,1.218,0,1,1,2.435,0V59.609A2.391,2.391,0,0,0,22.822,62H42.451a2.391,2.391,0,0,0,2.387-2.387V44.218a1.218,1.218,0,1,1,2.435,0V59.609A4.875,4.875,0,0,1,42.4,64.431Z" transform="translate(-18 -43)"/>
  </g>
  <g id="组_14" data-name="组 14" transform="translate(9.624 18.557)">
    <path id="路径_14" data-name="路径 14" class="cls-1" d="M45.5,58.435h-8.28a1.218,1.218,0,1,1,0-2.435H45.5a1.218,1.218,0,1,1,0,2.435Z" transform="translate(-36 -56)"/>
  </g>
  <g id="组_15" data-name="组 15" transform="translate(0 0)">
    <path id="路径_15" data-name="路径 15" class="cls-1" d="M45.007,28.664H18.413A2.179,2.179,0,0,1,16.464,27.5a2.306,2.306,0,0,1,.146-2.241l3.75-5.7A3.662,3.662,0,0,1,23.43,17.9H39.99a3.727,3.727,0,0,1,3.069,1.656l3.75,5.7a2.181,2.181,0,0,1,.1,2.241A2.106,2.106,0,0,1,45.007,28.664ZM18.9,26.229H44.568L41.062,20.92a1.294,1.294,0,0,0-1.072-.536H23.43a1.271,1.271,0,0,0-1.023.536Z" transform="translate(-16.241 -17.9)"/>
  </g>
</svg>
