<svg xmlns="http://www.w3.org/2000/svg" width="18" height="18" viewBox="0 0 18 18">
  <defs>
    <style>
      .cls-1 {
        fill: #fff;
      }
    </style>
  </defs>
  <path id="路径_97" data-name="路径 97" class="cls-1" d="M-17.361,66.627h-3.815V78.781H-19.3a1.5,1.5,0,0,1,1.5,1.5v1.335a.161.161,0,0,1-.16.161h-9.764a.161.161,0,0,1-.16-.161V80.278a1.5,1.5,0,0,1,1.5-1.5h1.859V66.627h-3.7q1.969,4.056,1.97,5.354a2.8,2.8,0,0,1-2.8,2.8,2.8,2.8,0,0,1-2.8-2.8q0-1.3,1.969-5.354h-.543A1.427,1.427,0,0,1-31.863,65.2a1.427,1.427,0,0,1,1.426-1.427h15.148A1.427,1.427,0,0,1-13.863,65.2a1.427,1.427,0,0,1-1.426,1.426h-.681q2.108,4.293,2.107,5.635a2.8,2.8,0,0,1-2.8,2.8,2.8,2.8,0,0,1-2.8-2.8Q-19.468,70.919-17.361,66.627ZM-22.3,65.5h-1.1v14.4h-2.984a.371.371,0,0,0-.371.372v.21a.161.161,0,0,0,.16.161h7.514a.161.161,0,0,0,.16-.161v-.21a.371.371,0,0,0-.371-.372h-3Zm-8.136,0h15.148a.3.3,0,0,0,.3-.3.3.3,0,0,0-.3-.3H-30.437a.3.3,0,0,0-.3.3A.3.3,0,0,0-30.437,65.5Zm-.215,7.011a1.678,1.678,0,0,0,1.591,1.145,1.678,1.678,0,0,0,1.592-1.145Zm0-1.125h3.175a32.575,32.575,0,0,0-1.588-4.3A32.526,32.526,0,0,0-30.648,71.388Zm12.324,1.125a1.677,1.677,0,0,0,1.658,1.426,1.677,1.677,0,0,0,1.659-1.426Zm.144-1.125h3.029a37.639,37.639,0,0,0-1.515-4.018,37.8,37.8,0,0,0-1.514,4.018Z" transform="translate(31.863 -63.774)"/>
</svg>
