<svg id="icon_画板_1" data-name="icon_画板 1" xmlns="http://www.w3.org/2000/svg" width="36.371" height="39.172" viewBox="0 0 36.371 39.172">
  <defs>
    <style>
      .cls-1 {
        fill: #797979;
      }
    </style>
  </defs>
  <path id="路径_22" data-name="路径 22" class="cls-1" d="M12.58,43.863a1.174,1.174,0,1,1,0-2.348H46.591a1.174,1.174,0,1,1,0,2.348ZM29.585,15.685a1.193,1.193,0,0,1-1.18-1.174V11.674a1.18,1.18,0,0,1,2.359,0v2.837A1.193,1.193,0,0,1,29.585,15.685Z" transform="translate(-11.4 -10.5)"/>
  <path id="路径_23" data-name="路径 23" class="cls-1" d="M42.907,82.233A5.627,5.627,0,0,1,37.3,76.626a4.566,4.566,0,0,1,.354-1.869,1.2,1.2,0,0,1,1.111-.657,1.475,1.475,0,0,1,.455.1,1.222,1.222,0,0,1,.707,1.515,3.257,3.257,0,0,0-.152,1.01,3.132,3.132,0,0,0,6.264,0,3.257,3.257,0,0,0-.152-1.01,1.189,1.189,0,0,1,.707-1.465,1.475,1.475,0,0,1,.455-.1,1.211,1.211,0,0,1,1.111.707,4.731,4.731,0,0,1,.354,1.869A5.574,5.574,0,0,1,42.907,82.233Z" transform="translate(-24.722 -43.061)"/>
  <path id="路径_24" data-name="路径 24" class="cls-1" d="M45.344,46.307V28.172a8.5,8.5,0,0,0-3.314-6.617,12.482,12.482,0,0,0-7.944-2.93h-.195c-6.335,0-11.452,4.243-11.452,9.5V46.256H20.1V28.172c0-6.567,6.189-11.972,13.84-11.972h.195a14.86,14.86,0,0,1,9.454,3.435,11.132,11.132,0,0,1,4.142,8.537V46.307Z" transform="translate(-15.705 -13.321)"/>
</svg>
