<svg xmlns="http://www.w3.org/2000/svg" width="18.2" height="19.86" viewBox="0 0 18.2 19.86">
  <defs>
    <style>
      .cls-1 {
        fill: #fff;
        stroke: #fff;
        stroke-width: 0.2px;
      }
    </style>
  </defs>
  <path id="路径_144" data-name="路径 144" class="cls-1" d="M-77.38,9.8l0-.014-.006-.016c0-.011-.013-.016-.019-.027a.576.576,0,0,0-.143-.2l-.053-.048a.587.587,0,0,0-.267-.114,7.952,7.952,0,0,0-.936-.062,7.745,7.745,0,0,0-6.9,4.335,7.954,7.954,0,0,0-1.027-2.275A7.711,7.711,0,0,0-93.169,7.87a7.743,7.743,0,0,0-.936.062h0a.58.58,0,0,0-.262.11c-.021.016-.038.033-.056.049a.558.558,0,0,0-.138.2c0,.011-.016.019-.021.03s0,.013-.006.019l0,.008a7.957,7.957,0,0,0-.393,2.48,7.868,7.868,0,0,0,7.772,7.945c.218,0,.434-.025.647-.044v8.223a.578.578,0,0,0,.58.579.578.578,0,0,0,.579-.579V20.195a2.683,2.683,0,0,0,.65.027,7.633,7.633,0,0,0,5.5-2.332,7.986,7.986,0,0,0,2.27-5.615A7.975,7.975,0,0,0-77.38,9.8Zm-16.447,1.029A6.785,6.785,0,0,1-93.6,9.056c.143-.011.286-.03.429-.03A6.636,6.636,0,0,1-86.861,13.8a6.909,6.909,0,0,1,.3,2.016,6.9,6.9,0,0,1-.079,1.011c-.016.1-.04.208-.062.31-.029.159-.072.313-.113.467-.129.008-.261.016-.393.016A6.7,6.7,0,0,1-93.827,10.832Zm13.741,6.252a6.486,6.486,0,0,1-4.675,1.981c-.132,0-.264-.005-.393-.016-.044-.153-.084-.31-.114-.466-.019-.1-.045-.2-.062-.31a7.066,7.066,0,0,1-.078-1.014,6.964,6.964,0,0,1,.038-.711c.005-.044.013-.084.019-.127.024-.192.051-.386.089-.572,0-.027.013-.054.021-.083.046-.2.095-.4.157-.6l.016-.043c.067-.2.143-.41.226-.607a.106.106,0,0,1,.011-.021c.089-.2.186-.4.291-.593l.008-.017a6.144,6.144,0,0,1,.345-.552c.008-.014.019-.024.027-.038a5.829,5.829,0,0,1,.372-.482c.022-.027.046-.052.07-.079.119-.134.24-.267.367-.391.043-.043.089-.083.135-.126.108-.1.218-.2.331-.291.073-.06.149-.116.224-.173s.181-.132.272-.194.216-.138.327-.2c.064-.038.132-.078.2-.113.138-.076.281-.146.423-.211l.13-.056c.167-.07.334-.135.507-.192a.752.752,0,0,0,.08-.027c.184-.056.367-.105.556-.148l.081-.016c.18-.038.364-.065.55-.086.054-.006.105-.011.159-.014.151-.013.307-.021.461-.024.1,0,.194,0,.291.005s.167.011.251.016a6.835,6.835,0,0,1,.231,1.777,6.838,6.838,0,0,1-1.943,4.812Z" transform="translate(95.086 -7.77)"/>
</svg>
