<svg xmlns="http://www.w3.org/2000/svg" width="16.962" height="18" viewBox="0 0 16.962 18">
  <defs>
    <style>
      .cls-1 {
        fill: #fff;
      }
    </style>
  </defs>
  <path id="路径_145" data-name="路径 145" class="cls-1" d="M-93.692,49.745l0,.006,8.017,4.629a.53.53,0,0,0,.264.071.532.532,0,0,0,.27-.074l7.955-4.593A.529.529,0,0,0-77,49.062a.527.527,0,0,0-.2-.195l-7.925-4.6a.531.531,0,0,0-.264-.072.532.532,0,0,0-.292.088l-7.949,4.589a.528.528,0,0,0-.194.72.5.5,0,0,0,.127.148Zm8.306-4.407,6.878,3.988-6.907,3.987-6.893-3.979Zm8.191,7.4-1.492-.865-1.054.609,1.233.715-6.907,3.987-6.893-3.979,1.236-.714-1.054-.608-1.5.865a.528.528,0,0,0-.194.72.544.544,0,0,0,.129.15l0,.006,8.014,4.627a.531.531,0,0,0,.534,0l7.955-4.593A.529.529,0,0,0-77,52.937a.527.527,0,0,0-.2-.195Zm0,3.875-1.485-.861-1.055.608,1.227.712-6.907,3.987-6.893-3.98,1.23-.709-1.054-.609-1.493.862a.527.527,0,0,0-.194.719.509.509,0,0,0,.128.149l0,.006,8.016,4.628a.52.52,0,0,0,.264.071.524.524,0,0,0,.27-.073l7.955-4.594A.528.528,0,0,0-77,56.812a.519.519,0,0,0-.2-.195Z" transform="translate(93.889 -44.2)"/>
</svg>
