<svg xmlns="http://www.w3.org/2000/svg" width="14.352" height="13.367" viewBox="0 0 14.352 13.367">
  <g id="icon_画板_1_副本_12" data-name="icon_画板 1 副本 12" transform="translate(-20.788 -20.187)">
    <path id="路径_42" data-name="路径 42" d="M37,20.454l1.2,2.394,2.633.407a.478.478,0,0,1,.263.814l-1.915,1.867.455,2.633a.476.476,0,0,1-.694.5l-2.37-1.245-2.37,1.245a.476.476,0,0,1-.694-.5l.455-2.633L32.04,24.068a.476.476,0,0,1,.263-.814l2.657-.383,1.2-2.394A.455.455,0,0,1,37,20.454Z" transform="translate(-8.449 0)" fill="#ffff7b"/>
    <path id="路径_43" data-name="路径 43" d="M23.735,54.7l.694,1.412,1.556.239a.249.249,0,0,1,.144.407L25,57.86l.263,1.556a.258.258,0,0,1-.359.263L23.5,58.938l-1.412.742a.25.25,0,0,1-.359-.263l.263-1.556-1.125-1.1a.235.235,0,0,1,.144-.407l1.556-.239.694-1.412A.29.29,0,0,1,23.735,54.7Z" transform="translate(0 -26.156)" fill="#ffff7b"/>
    <path id="路径_44" data-name="路径 44" d="M61.135,54.7l.694,1.412,1.556.239a.249.249,0,0,1,.144.407L62.4,57.86l.263,1.556a.258.258,0,0,1-.359.263L60.9,58.938l-1.412.742a.25.25,0,0,1-.359-.263l.263-1.556-1.125-1.1a.235.235,0,0,1,.144-.407l1.556-.239.694-1.412C60.8,54.533,61.063,54.533,61.135,54.7Z" transform="translate(-28.447 -26.156)" fill="#ffff7b"/>
  </g>
</svg>
